<?xml version="1.0" standalone="no"?>
<!DOCTYPE svg PUBLIC "-//W3C//DTD SVG 20010904//EN"
 "http://www.w3.org/TR/2001/REC-SVG-20010904/DTD/svg10.dtd">
<svg version="1.0" xmlns="http://www.w3.org/2000/svg"
 width="256.000000pt" height="256.000000pt" viewBox="0 0 256.000000 256.000000"
 preserveAspectRatio="xMidYMid meet">
<metadata>
Created by potrace 1.11, written by Peter Selinger 2001-2013
</metadata>
<g transform="translate(0.000000,256.000000) scale(0.100000,-0.100000)"
fill="#000000" stroke="none">
<path d="M265 2547 c-235 -78 -336 -347 -203 -545 l28 -44 1 -170 c1 -189 10
-239 59 -306 35 -49 115 -98 175 -107 l43 -6 0 -657 0 -657 27 -22 26 -23 757
0 c416 0 766 3 777 6 45 12 49 35 51 289 1 132 2 243 3 246 1 4 56 7 124 7
132 1 180 12 252 59 56 37 100 88 133 153 l27 55 3 356 c3 417 2 425 -93 527
-89 96 -160 122 -335 122 l-115 0 2 43 c1 23 2 45 2 48 1 4 14 12 31 19 39 16
97 82 122 137 46 104 29 229 -46 331 -78 105 -174 152 -302 149 -78 -3 -149
-27 -210 -72 -19 -14 -23 -13 -54 10 -57 42 -125 60 -231 60 -89 0 -100 -2
-167 -36 l-72 -36 -33 22 c-121 80 -288 68 -386 -27 l-30 -29 -48 34 c-26 19
-66 43 -88 52 -53 22 -179 29 -230 12z m180 -186 c22 -10 51 -31 65 -46 36
-39 73 -55 128 -55 49 0 72 11 127 64 62 58 125 71 182 36 18 -10 39 -33 47
-49 39 -74 90 -79 152 -15 101 103 226 112 337 22 23 -19 41 -23 96 -23 63 0
72 3 131 43 53 35 71 42 112 42 113 0 188 -77 188 -193 l0 -40 -25 23 c-25 23
-29 24 -221 24 -215 1 -214 1 -214 -62 0 -46 -22 -93 -64 -140 -112 -124 -343
-69 -382 91 -7 32 -48 67 -78 67 -11 0 -34 -8 -51 -18 -84 -51 -141 -50 -204
5 -45 38 -88 49 -155 39 -40 -6 -50 -13 -88 -64 -43 -57 -119 -108 -145 -97
-15 5 -15 10 -14 -262 0 -120 -4 -195 -10 -199 -17 -10 -66 16 -78 42 -7 16
-11 99 -11 231 l0 206 -34 33 c-67 65 -71 181 -9 255 50 59 140 76 218 40z
m1383 -528 l3 -183 -369 0 c-361 0 -370 0 -375 20 -7 29 -67 28 -74 0 -5 -20
-12 -20 -237 -18 l-231 3 0 113 0 113 40 31 c22 18 48 42 58 54 l17 22 68 -34
c72 -37 139 -47 206 -32 37 8 41 7 69 -28 76 -92 171 -141 289 -148 176 -11
322 71 396 222 l27 53 55 -3 55 -3 3 -182z m439 -198 c43 -18 64 -38 89 -86
15 -30 18 -67 19 -334 0 -165 -3 -318 -8 -340 -21 -98 -84 -137 -231 -140 -56
-1 -108 0 -116 2 -13 4 -15 62 -14 456 1 249 2 453 3 455 1 1 51 2 111 2 77 0
122 -5 147 -15z m-536 -149 c3 -48 -8 -66 -43 -66 -20 0 -48 26 -48 46 0 47
89 67 91 20z m-8 -126 c20 -29 18 -327 -3 -340 -22 -14 -47 -12 -64 6 -13 13
-16 43 -16 169 0 126 3 156 16 169 21 22 50 20 67 -4z"/>
<path d="M740 1815 c-30 -36 18 -87 62 -64 20 11 24 49 6 67 -17 17 -53 15
-68 -3z"/>
<path d="M1651 1808 c-17 -46 18 -80 61 -57 23 12 25 64 2 73 -31 12 -55 6
-63 -16z"/>
</g>
</svg>
